<?xml version="1.0" standalone="no"?>
<!DOCTYPE svg PUBLIC "-//W3C//DTD SVG 20010904//EN"
 "http://www.w3.org/TR/2001/REC-SVG-20010904/DTD/svg10.dtd">
<svg version="1.0" xmlns="http://www.w3.org/2000/svg"
 width="857.000000pt" height="857.000000pt" viewBox="0 0 857.000000 857.000000"
 preserveAspectRatio="xMidYMid meet">
<metadata>
Created by potrace 1.11, written by Peter Selinger 2001-2013
</metadata>
<g transform="translate(0.000000,857.000000) scale(0.100000,-0.100000)"
fill="#000000" stroke="none">
<path d="M2321 8395 c-298 -64 -382 -98 -581 -240 -110 -78 -234 -199 -290
-284 -8 -13 -30 -42 -47 -65 -52 -68 -121 -194 -158 -291 -55 -144 -118 -415
-130 -565 -4 -41 -8 -86 -10 -100 -2 -14 -6 -59 -10 -100 -4 -41 -8 -86 -10
-100 -2 -14 -6 -56 -10 -95 -3 -38 -10 -113 -15 -165 -6 -52 -12 -120 -15
-150 -3 -30 -7 -73 -10 -95 -2 -22 -7 -67 -10 -100 -3 -33 -7 -76 -10 -95 -2
-19 -7 -71 -10 -115 -4 -44 -8 -87 -10 -95 -1 -8 -6 -51 -10 -95 -3 -44 -8
-93 -10 -110 -2 -16 -7 -61 -10 -100 -3 -38 -8 -88 -10 -110 -3 -22 -9 -87
-15 -145 -6 -58 -13 -127 -16 -155 -11 -116 -14 -145 -24 -250 -6 -60 -12
-126 -15 -145 -2 -19 -7 -64 -10 -100 -6 -68 -22 -229 -31 -315 -10 -105 -14
-145 -29 -295 -8 -85 -18 -182 -21 -214 -3 -32 -7 -75 -9 -95 -2 -20 -7 -67
-11 -106 -4 -38 -8 -81 -9 -95 -3 -36 -16 -160 -20 -195 -2 -16 -7 -66 -10
-110 -4 -44 -8 -87 -10 -95 -2 -8 -7 -55 -10 -105 -4 -49 -8 -97 -10 -105 -2
-8 -7 -51 -10 -95 -4 -44 -8 -91 -10 -105 -2 -14 -6 -54 -10 -90 -9 -99 -29
-305 -39 -405 -3 -27 -8 -79 -11 -115 -3 -36 -8 -76 -10 -90 -2 -14 -7 -60
-10 -102 -4 -43 -8 -90 -10 -105 -2 -16 -6 -62 -10 -103 -3 -41 -8 -86 -10
-100 -2 -14 -6 -59 -10 -100 -3 -41 -8 -91 -10 -110 -5 -37 -10 -93 -20 -200
-4 -36 -8 -76 -10 -90 -2 -14 -7 -63 -10 -110 -4 -47 -8 -92 -10 -100 -18 -97
-15 -180 8 -271 43 -169 137 -264 303 -305 95 -24 157 -33 392 -59 26 -3 64
-8 84 -11 22 -3 77 4 135 17 181 41 281 141 322 320 26 115 27 122 36 219 4
41 8 91 11 110 2 19 13 129 24 245 11 116 22 231 25 258 3 26 7 71 10 100 3
28 8 72 10 97 3 25 8 74 10 110 3 35 7 76 10 90 2 14 6 59 10 100 3 41 7 86 9
100 3 14 7 61 11 105 3 44 8 94 10 110 2 17 7 62 10 100 3 39 8 81 10 95 2 14
6 61 10 104 4 43 8 86 10 95 1 9 6 57 10 106 4 50 8 101 10 115 2 14 6 54 9
90 4 36 9 81 11 100 2 19 7 64 10 100 3 36 8 81 10 100 3 19 7 70 11 113 3 43
7 86 9 95 1 10 6 53 10 97 4 44 8 91 10 105 2 14 7 59 10 100 4 41 9 93 11
115 2 22 8 87 14 145 6 58 12 126 15 153 3 26 7 71 10 100 3 28 7 72 10 97 3
25 7 70 10 100 3 30 7 75 10 100 6 55 12 124 20 210 4 36 8 81 10 100 3 19 7
64 10 100 3 36 7 76 10 90 2 14 7 61 10 105 3 44 8 91 10 105 2 14 6 59 10
100 4 41 8 91 10 110 2 19 7 64 10 100 3 36 7 81 10 100 2 19 7 60 9 90 5 48
16 161 31 313 9 82 18 178 30 307 4 36 8 76 10 90 2 14 6 60 10 102 3 43 8 90
10 105 2 16 6 60 10 100 4 40 8 85 10 100 2 15 6 66 10 113 9 102 46 195 93
228 l30 22 1505 0 1504 0 34 -23 c19 -12 44 -43 56 -67 21 -43 22 -61 28 -420
3 -206 8 -474 10 -595 2 -121 7 -391 10 -600 3 -209 7 -470 10 -580 2 -110 7
-366 10 -570 3 -203 8 -469 10 -590 3 -121 7 -389 10 -595 3 -206 7 -472 10
-590 2 -118 7 -381 10 -585 4 -203 11 -399 16 -435 22 -146 88 -381 133 -473
51 -105 178 -286 263 -375 125 -131 374 -293 513 -335 92 -28 301 -76 370 -86
36 -4 245 -9 465 -9 390 -1 402 0 503 24 85 20 113 32 157 65 89 67 130 131
160 247 23 92 25 119 25 305 0 185 -2 214 -25 306 -30 119 -70 182 -160 250
-44 33 -72 45 -157 65 -100 23 -116 24 -487 23 l-383 0 -35 28 c-69 55 -70 61
-77 535 -4 234 -9 520 -11 635 -2 116 -6 370 -10 565 -3 195 -8 472 -10 615
-10 598 -15 886 -20 1170 -3 165 -7 419 -10 565 -3 146 -7 411 -10 590 -15
978 -12 928 -74 1175 -51 201 -105 313 -235 486 -104 138 -171 203 -321 310
-139 98 -253 152 -419 195 -264 68 -141 64 -1875 63 l-1576 0 -114 -24z"/>
<path d="M3739 6416 c-2 -2 -17 -6 -34 -9 -44 -7 -136 -32 -348 -93 -157 -45
-198 -61 -247 -95 -88 -61 -135 -136 -163 -256 l-23 -98 24 -100 c18 -77 339
-1114 592 -1910 16 -49 65 -207 110 -350 73 -233 147 -469 230 -730 15 -49 51
-164 80 -255 103 -329 117 -367 160 -424 63 -86 133 -132 237 -158 49 -11 97
-21 108 -21 35 -1 165 33 380 100 240 75 296 106 363 201 31 44 45 80 64 157
l24 101 -27 113 c-16 62 -44 161 -63 219 -19 59 -58 181 -86 272 -29 91 -65
206 -80 255 -60 187 -275 871 -355 1125 -46 146 -109 346 -140 445 -31 99
-133 423 -226 720 -153 486 -175 546 -213 603 -63 91 -130 135 -254 166 -110
28 -107 28 -113 22z"/>
</g>
</svg>
