<?xml version="1.0" encoding="UTF-8" standalone="no"?>
<!-- Created with Inkscape (http://www.inkscape.org/) -->

<svg
   xmlns:dc="http://purl.org/dc/elements/1.1/"
   xmlns:cc="http://creativecommons.org/ns#"
   xmlns:rdf="http://www.w3.org/1999/02/22-rdf-syntax-ns#"
   xmlns:svg="http://www.w3.org/2000/svg"
   xmlns="http://www.w3.org/2000/svg"
   xmlns:sodipodi="http://sodipodi.sourceforge.net/DTD/sodipodi-0.dtd"
   xmlns:inkscape="http://www.inkscape.org/namespaces/inkscape"
   width="9.5mm"
   height="11mm"
   viewBox="0 0 9.5 11"
   version="1.1"
   id="svg8"
   inkscape:version="0.92.4 (5da689c313, 2019-01-14)"
   sodipodi:docname="圖畫.svg">
  <defs
     id="defs2">
    <linearGradient
       id="a"
       y1="20.253151"
       x2="34.516129"
       y2="20.253151"
       gradientUnits="userSpaceOnUse">
      <stop
         offset="0"
         stop-color="#f26525"
         id="stop103" />
      <stop
         offset="0.48"
         stop-color="#f26525"
         id="stop105" />
      <stop
         offset="0.52"
         stop-color="#ea5324"
         id="stop107" />
      <stop
         offset="1"
         stop-color="#ea5324"
         id="stop109" />
    </linearGradient>
    <linearGradient
       id="a-5"
       y1="20.253151"
       x2="34.516129"
       y2="20.253151"
       gradientUnits="userSpaceOnUse">
      <stop
         offset="0"
         stop-color="#f26525"
         id="stop103-2" />
      <stop
         offset="0.48"
         stop-color="#f26525"
         id="stop105-3" />
      <stop
         offset="0.52"
         stop-color="#ea5324"
         id="stop107-3" />
      <stop
         offset="1"
         stop-color="#ea5324"
         id="stop109-9" />
    </linearGradient>
  </defs>
  <sodipodi:namedview
     id="base"
     pagecolor="#ffffff"
     bordercolor="#666666"
     borderopacity="1.0"
     inkscape:pageopacity="0.0"
     inkscape:pageshadow="2"
     inkscape:zoom="11.2"
     inkscape:cx="36.888395"
     inkscape:cy="19.237014"
     inkscape:document-units="mm"
     inkscape:current-layer="layer1"
     showgrid="false"
     inkscape:window-width="1280"
     inkscape:window-height="943"
     inkscape:window-x="-9"
     inkscape:window-y="-9"
     inkscape:window-maximized="1" />
  <metadata
     id="metadata5">
    <rdf:RDF>
      <cc:Work
         rdf:about="">
        <dc:format>image/svg+xml</dc:format>
        <dc:type
           rdf:resource="http://purl.org/dc/dcmitype/StillImage" />
        <dc:title></dc:title>
      </cc:Work>
    </rdf:RDF>
  </metadata>
  <g
     inkscape:label="圖層 1"
     inkscape:groupmode="layer"
     id="layer1"
     transform="translate(0,-286)">
    <g
       id="g142"
       transform="matrix(0.26458333,0,0,0.26458333,0.19108571,286.18976)">
      <g
         id="g128">
        <path
           inkscape:connector-curvature="0"
           d="M 43.34153,21.73505 V 8.023 h 1.31184 a 1.93413,1.93413 0 0 1 1.93414,1.93414 V 16.054 a 8.97275,8.97275 0 0 1 6.2742,-2.67455 8.69381,8.69381 0 0 1 8.91569,7.85742 8.552,8.552 0 0 1 -8.6649,9.54042 c -5.66297,2e-5 -9.77097,-3.51095 -9.77097,-9.04224 z m 3.19232,1.07812 a 6.17388,6.17388 0 0 0 5.8799,5.21923 c 3.71752,0.05746 6.25259,-2.36664 6.25259,-5.95527 a 5.72708,5.72708 0 0 0 -6.09015,-5.95627 5.76119,5.76119 0 0 0 -6.04234,6.69231 z"
           style="fill:#76777a"
           id="path116" />
        <g
           id="g126">
          <path
             inkscape:connector-curvature="0"
             d="m 67.19541,13.7219 v 2.442 c 2.0424,-2.27426 3.25453,-2.87706 5.64408,-2.87706 a 13.16442,13.16442 0 0 1 2.07711,0.1677 v 3.24508 a 8.39939,8.39939 0 0 0 -2.25069,-0.30094 5.84224,5.84224 0 0 0 -4.25837,1.63885 3.7497,3.7497 0 0 0 -1.21213,3.14445 v 9.03275 H 63.83674 V 13.7219 Z"
             style="fill:#76777a"
             id="path118" />
          <path
             inkscape:connector-curvature="0"
             d="m 75.715,19.17508 a 5.57805,5.57805 0 0 1 1.17646,-3.31216 c 1.3857,-1.70592 3.87843,-2.57612 7.40971,-2.57612 2.80517,0 4.84756,0.4351 6.267,1.37238 1.17742,0.76864 1.66246,1.90624 1.66246,3.914 v 7.32588 c 0,1.60624 0.41562,2.17457 1.55832,2.141 a 7.12618,7.12618 0 0 0 0.7618,-0.06708 v 2.20811 a 4.99873,4.99873 0 0 1 -1.76661,0.26739 c -2.11182,0 -3.081,-0.63541 -3.73861,-2.4755 A 9.86642,9.86642 0 0 1 81.739,30.68327 c -4.12048,0 -6.64792,-1.87363 -6.64792,-4.9184 A 4.33092,4.33092 0 0 1 77.688,21.75121 c 1.24685,-0.53573 2.00865,-0.7025 5.57465,-1.07052 a 20.954,20.954 0 0 0 4.43194,-0.63634 1.61,1.61 0 0 0 1.351,-1.63884 c 0,-1.773 -1.48888,-2.57613 -4.60552,-2.57613 -2.94636,0 -4.46458,0.58244 -5.074,2.07558 a 2.00956,2.00956 0 0 1 -1.85589,1.27012 z m 13.33055,2.81 a 32.9731,32.9731 0 0 1 -6.54473,1.20468 c -3.01249,0.30093 -3.9469,0.86926 -3.9469,2.37488 0,1.67238 1.38474,2.54258 4.12047,2.54258 a 7.35729,7.35729 0 0 0 5.159,-1.67238 3.44873,3.44873 0 0 0 1.2122,-3.11184 z"
             style="fill:#76777a"
             id="path120" />
          <path
             inkscape:connector-curvature="0"
             d="m 102.68039,30.21469 h -0.86593 a 1.98,1.98 0 0 1 -1.79663,-1.11588 L 92.75431,13.7219 h 2.0182 a 2.96619,2.96619 0 0 1 2.72831,1.7471 l 4.84446,11.06548 5.00658,-11.09438 a 2.96768,2.96768 0 0 1 2.71546,-1.71823 h 1.83422 l -7.43142,15.39136 a 1.98075,1.98075 0 0 1 -1.78973,1.10146 z"
             style="fill:#76777a"
             id="path122" />
          <path
             inkscape:connector-curvature="0"
             d="m 114.17672,22.92141 c 0.34619,3.17893 2.83892,5.15225 6.54378,5.15225 a 5.60027,5.60027 0 0 0 4.66179,-1.877 3.00244,3.00244 0 0 1 2.35266,-1.13424 h 1.95358 c -1.69718,3.74726 -4.74438,5.58735 -9.2795,5.58735 -5.6788,0 -9.4878,-3.44633 -9.4878,-8.59765 0,-5.18579 3.91315,-8.76534 9.55723,-8.76534 4.08479,0 7.375,1.84009 8.69031,4.91839 A 11.1421,11.1421 0 0 1 130,22.92141 Z m 12.39518,-2.54165 a 6.42575,6.42575 0 0 0 -12.292,0 z"
             style="fill:#76777a"
             id="path124" />
        </g>
      </g>
      <g
         id="g140">
        <path
           inkscape:connector-curvature="0"
           d="M 33.2733,9.73876 34.17992,7.7164 A 0.53055,0.53055 0 0 0 34.0733,7.1266 L 31.67028,4.693 A 3.82256,3.82256 0 0 0 27.67165,3.763 L 27.02974,3.98885 23.42571,0.0494 17.26619,0 H 17.24995 L 11.09042,0.0494 7.48642,3.98881 6.84448,3.763 A 3.82257,3.82257 0 0 0 2.84585,4.693 L 0.44283,7.1266 A 0.53057,0.53057 0 0 0 0.33621,7.7164 L 1.24284,9.73876 0,13.12892 0.8046,16.185 4.46812,30.11655 a 7.09639,7.09639 0 0 0 2.74629,3.97591 c 0,0 4.448,3.13742 8.83785,5.98717 a 2.22657,2.22657 0 0 0 1.20581,0.42664 2.22654,2.22654 0 0 0 1.2058,-0.42664 c 4.38981,-2.84975 8.83785,-5.98717 8.83785,-5.98717 A 7.09635,7.09635 0 0 0 30.048,30.11655 l 3.66353,-13.93155 0.8046,-3.05608 z"
           style="fill:url(#a-5)"
           id="path130" />
        <g
           id="g136">
          <path
             inkscape:connector-curvature="0"
             d="M 22.748,27.19068 20.737,26.14289 C 20.404,25.96938 19.84779,25.70954 19.501,25.56548 L 18.40732,25.1111 a 5.22709,5.22709 0 0 0 -0.71991,-0.262 l -0.1462,-10e-5 -0.14621,10e-5 a 5.22709,5.22709 0 0 0 -0.71991,0.262 l -1.09368,0.45438 c -0.34677,0.14406 -0.903,0.4039 -1.236,0.57741 l -2.011,1.04779 a 0.38309,0.38309 0 0 0 -0.04788,0.70946 l 1.74489,1.23294 c 0.30666,0.2167 0.7901,0.59481 1.07428,0.84025 l 0.49073,0.4238 c 0.28419,0.24545 0.74689,0.64974 1.02821,0.89847 l 0.46547,0.4115 a 0.64968,0.64968 0 0 0 0.90218,0 l 0.46546,-0.4115 c 0.28132,-0.24873 0.744,-0.653 1.02821,-0.89847 l 0.49073,-0.4238 c 0.28418,-0.24544 0.76762,-0.62355 1.07429,-0.84025 l 1.74488,-1.23294 A 0.38309,0.38309 0 0 0 22.748,27.19068 Z"
             style="fill:#f3f3f3"
             id="path132" />
          <path
             inkscape:connector-curvature="0"
             d="m 30.70105,12.6402 a 8.92763,8.92763 0 0 0 -0.53666,-0.893 L 29.03812,10.08052 C 28.82786,9.7694 28.46434,9.27457 28.23031,8.98093 l -1.51918,-1.906 a 5.322,5.322 0 0 0 -0.45187,-0.52894 0.05159,0.05159 0 0 1 -0.03026,0 c -0.0022,-0.00275 -0.30564,0.05292 -0.67441,0.1237 l -2.32634,0.44655 c -0.36877,0.07079 -0.82682,0.15823 -1.0179,0.19433 A 2.64917,2.64917 0 0 1 21.21347,7.16562 L 19.37685,6.57016 C 19.01964,6.45435 18.42812,6.29016 18.06232,6.20524 A 2.68516,2.68516 0 0 0 17.54118,6.17388 2.68535,2.68535 0 0 0 17.02003,6.20524 C 16.65424,6.29014 16.06271,6.45435 15.7055,6.57016 L 13.86888,7.16562 A 2.64917,2.64917 0 0 1 12.872,7.31057 C 12.68092,7.27447 12.22287,7.18703 11.8541,7.11624 L 9.52776,6.66966 C 9.15899,6.59888 8.85551,6.54321 8.85335,6.54596 a 0.05158,0.05158 0 0 1 -0.03026,0 A 5.322,5.322 0 0 0 8.37122,7.0749 L 6.85205,8.9809 C 6.61805,9.27454 6.25449,9.76937 6.04423,10.08049 L 4.918,11.74716 a 8.92955,8.92955 0 0 0 -0.53666,0.893 4.0651,4.0651 0 0 0 -0.15394,1.05543 L 4.28451,13.877 a 2.69511,2.69511 0 0 0 0.10456,0.34257 c 0.23514,0.29277 0.63818,0.756 0.89561,1.02935 l 3.9772,4.22338 a 1.14076,1.14076 0 0 1 0.20235,1.126 l -0.6511,1.541 A 2.00207,2.00207 0 0 0 8.78278,23.409 l 0.13172,0.35857 a 3.44908,3.44908 0 0 0 1.05988,1.48533 l 0.62508,0.50891 a 1.18084,1.18084 0 0 0 1.14576,0.13729 L 13.965,24.841 a 5.64318,5.64318 0 0 0 1.12319,-0.75116 L 16.8666,22.4851 a 0.71151,0.71151 0 0 0 0.03594,-1.02169 L 12.89121,18.76013 A 0.77666,0.77666 0 0 1 12.6457,17.77582 l 1.5559,-2.92476 a 1.51994,1.51994 0 0 0 0.07553,-1.1621 1.77414,1.77414 0 0 0 -0.88383,-0.80058 L 8.5171,11.04677 C 8.16582,10.9141 8.18425,10.77657 8.5581,10.74114 l 2.863,-0.27129 a 4.41828,4.41828 0 0 1 1.33737,0.1189 l 2.49374,0.6951 a 0.76418,0.76418 0 0 1 0.5347,0.85489 l -0.97925,5.34765 a 2.7651,2.7651 0 0 0 -0.04906,0.90259 c 0.04066,0.12706 0.3744,0.29509 0.74165,0.3734 l 1.51807,0.32372 a 2.55391,2.55391 0 0 0 1.04567,0 l 1.51807,-0.32372 c 0.36725,-0.07831 0.701,-0.24634 0.74165,-0.3734 a 2.765,2.765 0 0 0 -0.04905,-0.90259 l -0.97925,-5.34765 a 0.76416,0.76416 0 0 1 0.53469,-0.85489 l 2.49374,-0.6951 a 4.41828,4.41828 0 0 1 1.33737,-0.1189 l 2.863,0.27129 c 0.37383,0.03543 0.39227,0.173 0.041,0.30563 l -4.87617,1.84165 a 1.77418,1.77418 0 0 0 -0.88383,0.80058 1.52,1.52 0 0 0 0.07554,1.1621 l 1.55589,2.92476 a 0.77666,0.77666 0 0 1 -0.24551,0.98431 l -4.01133,2.70328 a 0.71151,0.71151 0 0 0 0.03594,1.02169 l 1.77841,1.60474 a 5.64318,5.64318 0 0 0 1.12319,0.75116 l 2.21975,1.0581 a 1.18083,1.18083 0 0 0 1.14576,-0.13729 l 0.62508,-0.50891 a 3.449,3.449 0 0 0 1.05988,-1.48533 l 0.13173,-0.35857 a 2.00221,2.00221 0 0 0 -0.03031,-1.26978 l -0.65111,-1.541 a 1.14076,1.14076 0 0 1 0.20235,-1.126 l 3.9772,-4.22338 c 0.25743,-0.27339 0.66047,-0.73658 0.89561,-1.02935 a 2.69511,2.69511 0 0 0 0.10456,-0.34257 l 0.05711,-0.18141 a 4.0651,4.0651 0 0 0 -0.1539,-1.05535 z"
             style="fill:#f3f3f3"
             id="path134" />
        </g>
        <path
           inkscape:connector-curvature="0"
           d="m 8.54,6.546 a 0.05158,0.05158 0 0 0 0.03026,0 C 8.57242,6.54325 8.8759,6.59892 9.24467,6.6697 l 2.32634,0.44655 c 0.36877,0.07079 0.82682,0.15823 1.0179,0.19433 a 2.64917,2.64917 0 0 0 0.99688,-0.14495 l 1.83662,-0.59546 c 0.35721,-0.11581 0.94874,-0.28 1.31453,-0.36492 a 2.68535,2.68535 0 0 1 0.52115,-0.03136 2.68516,2.68516 0 0 1 0.52114,0.03136 c 0.3658,0.0849 0.95732,0.24911 1.31453,0.36492 l 1.83662,0.59546 a 2.64917,2.64917 0 0 0 0.99688,0.14495 c 0.19108,-0.0361 0.64913,-0.12354 1.0179,-0.19433 L 25.2715,6.6697 C 25.64027,6.59892 25.94375,6.54325 25.94591,6.546 a 0.05159,0.05159 0 0 0 0.03026,0 C 29.2169,3.5906 31.67028,4.693 31.67028,4.693 A 3.82256,3.82256 0 0 0 27.67165,3.763 L 27.02974,3.98885 23.42571,0.04939 17.26619,0 H 17.24995 L 11.09042,0.04939 7.48639,3.9888 6.84448,3.763 a 3.82257,3.82257 0 0 0 -3.99863,0.93 c 0,0 2.45338,-1.1024 5.69415,1.853 z"
           style="fill:#f15b2f"
           id="path138" />
      </g>
    </g>
  </g>
</svg>
